CATALOG 4988649413206
FILE "Uresei Yatsura - Dear My Friends (1994)(Game Arts)(NTSC)(JP)(Track 1 of 3)[!].iso" BINARY
  TRACK 01 MODE1/2048
    INDEX 01 00:00:00
FILE "Uresei Yatsura - Dear My Friends (1994)(Game Arts)(NTSC)(JP)(Track 2 of 3)[!].wav" WAVE
  TRACK 02 AUDIO
    PREGAP 00:02:00
    INDEX 01 00:00:00
FILE "Uresei Yatsura - Dear My Friends (1994)(Game Arts)(NTSC)(JP)(Track 3 of 3)[!].wav" WAVE
  TRACK 03 AUDIO
    INDEX 00 00:00:00
    INDEX 01 00:01:74
